<svg width="320" height="320" viewBox="0 0 320 320" version="1.1" xmlns="http://www.w3.org/2000/svg" xmlns:xlink="http://www.w3.org/1999/xlink">
<title>Logo Icon</title>
<desc>Created using Figma</desc>
<g id="Canvas" transform="translate(-1648 -75)">
<clipPath id="clip-0" clip-rule="evenodd">
<path d="M 1648 75L 1968 75L 1968 395L 1648 395L 1648 75Z" fill="#FFFFFF"/>
</clipPath>
<g id="Logo Icon" clip-path="url(#clip-0)">
<g id="Union">
<use xlink:href="#path0_fill" transform="translate(1648 75)" fill="#FFFFFF"/>
</g>
</g>
</g>
<defs>
<path id="path0_fill" fill-rule="evenodd" d="M 36.9105 262.227C 29.7531 253.618 23.4816 244.247 18.236 234.252C 6.58923 212.062 0 186.8 0 160C 0 159.655 0.00109863 159.31 0.00328064 158.965C 0.559906 71.0759 71.9796 0 160 0C 176.809 0 193.013 2.59204 208.233 7.39822C 219.012 10.8018 229.297 15.3158 238.955 20.806C 239.189 20.9387 239.422 21.072 239.655 21.2059C 248.544 26.3185 256.895 32.2604 264.604 38.9261C 296.412 66.4313 317.268 106.26 319.751 150.991C 319.916 153.973 320 156.977 320 160C 320 193.081 309.96 223.818 292.761 249.329C 285.571 259.995 277.128 269.747 267.645 278.376C 239.224 304.236 201.453 320 160 320C 121.818 320 86.7601 306.626 59.2548 284.306C 51.1432 277.724 43.6884 270.364 37.0042 262.339L 36.9105 262.227ZM 244.775 61.4417C 272.466 85.2821 290 120.593 290 160C 290 186.97 281.787 212.023 267.725 232.792C 260.426 226.639 253.822 219.688 248.047 212.073C 244.762 225 235.814 235.878 223.822 241.62C 232.162 245.804 239.916 250.855 246.962 256.633C 223.927 277.376 193.438 290 160 290C 129.187 290 100.878 279.28 78.5994 261.366C 88.7767 251.968 100.679 244.183 113.874 238.503C 104.601 232.261 98.0948 222.706 95.3441 212.115C 81.056 219.461 65.8154 225.199 49.8602 229.092C 37.2775 209.076 30 185.388 30 160C 30 88.203 88.203 30 160 30C 177.164 30 193.55 33.3262 208.551 39.3692C 207.696 52.5224 205.633 65.3421 202.474 77.7181C 200.15 83.7729 198.187 90.0067 196.611 96.3928C 206.936 96.9268 216.973 100.974 224.749 107.938C 224.873 107.345 225.002 106.755 225.134 106.166C 227.367 99.8964 229.347 93.5063 231.062 87.0077C 234.674 77.931 239.291 69.3633 244.775 61.4417ZM 138.968 221C 125.764 221 117.359 209.105 119.174 197.773C 119.762 194.104 121.42 190.495 124.334 187.367L 179.883 127.743C 181.321 126.2 182.904 124.952 184.578 123.982C 196.08 117.321 211.875 123.808 214.247 138.103L 224.139 197.727C 224.147 197.774 224.154 197.822 224.162 197.869C 224.275 198.583 224.349 199.292 224.386 199.996C 224.974 211.255 215.989 221 204.408 221L 138.968 221Z"/>
</defs>
</svg>
